<?xml version="1.0" standalone="no"?>
<!DOCTYPE svg PUBLIC "-//W3C//DTD SVG 20010904//EN"
 "http://www.w3.org/TR/2001/REC-SVG-20010904/DTD/svg10.dtd">
<svg version="1.0" xmlns="http://www.w3.org/2000/svg"
 width="16.000000pt" height="16.000000pt" viewBox="0 0 16.000000 16.000000"
 preserveAspectRatio="xMidYMid meet">
<metadata>
Created by potrace 1.11, written by Peter Selinger 2001-2013
</metadata>
<g transform="translate(0.000000,16.000000) scale(0.006154,-0.006154)"
fill="#000000" stroke="none">
<path d="M0 1300 l0 -1300 1300 0 1300 0 0 1300 0 1300 -1300 0 -1300 0 0
-1300z m1574 951 c116 -31 215 -83 295 -157 113 -105 171 -221 171 -344 l0
-60 -215 0 -215 0 0 23 c0 74 -63 167 -135 202 -61 28 -147 38 -221 25 -139
-24 -214 -93 -214 -197 0 -112 69 -158 425 -283 432 -151 586 -309 585 -601 0
-46 -5 -104 -11 -128 -41 -180 -200 -320 -434 -383 -68 -18 -108 -21 -260 -21
-163 0 -189 2 -278 26 -164 44 -323 135 -400 229 -71 87 -117 212 -117 320 l0
58 214 0 213 0 7 -56 c17 -149 97 -220 272 -245 212 -29 354 50 354 198 -1
130 -66 182 -355 283 -385 135 -543 236 -615 393 -30 63 -34 84 -38 178 -4 89
-1 119 17 177 59 194 264 337 549 382 94 15 316 4 406 -19z"/>
</g>
</svg>
